<?xml version="1.0" encoding="UTF-8"?>
<svg id="Calque_1" data-name="Calque 1" xmlns="http://www.w3.org/2000/svg" viewBox="0 0 32 32">
  <defs>
    <style>
      .cls-1 {
        fill: #7c2808;
      }
    </style>
  </defs>
  <path class="cls-1" d="M15.01,8.99c-1.92-2.21-4.96-2.21-6.16-2.22-1.2,0-4.24,0-6.17,2.2-1.9,2.18-2.05,5.75-.34,8.89,2.16,4.31,4.32,8.62,6.47,12.93h0c2.17-4.31,4.34-8.61,6.51-12.92,1.72-3.13,1.58-6.71-.31-8.89ZM8.78,16.01c-1.33,0-2.41-1.08-2.41-2.41s1.08-2.41,2.41-2.41,2.41,1.08,2.41,2.41-1.08,2.41-2.41,2.41Z"/>
  <circle class="cls-1" cx="8.78" cy="3.62" r="2.41"/>
  <path class="cls-1" d="M10.59,6.61c.91-.39,4.05-1.59,7.73-.44,2.35.73,3.87,2.09,4.62,2.86.33.27.88.63,1.62.8,1.28.28,2.44-.02,3.25-.63,1.01-.77,2.02-1.55,3.03-2.32-.14.39-.31.88-.46,1.29-.7,1.97-1.05,2.95-1.14,3.07-1.13,1.51-4.57,1.32-6.9.3-.41-.18-1.63-1.05-4.08-2.78-1.89-1.34-2.3-1.67-3.1-1.97-1.78-.67-3.49-.44-4.59-.17Z"/>
</svg>