<?xml version="1.0" encoding="UTF-8"?>
<svg id="Calque_1" data-name="Calque 1" xmlns="http://www.w3.org/2000/svg" viewBox="0 0 1347.24 785.83">
  <defs>
    <style>
      .cls-1, .cls-2 {
        fill: #7c2808;
      }

      .cls-3 {
        letter-spacing: -.02em;
      }

      .cls-4 {
        letter-spacing: -.04em;
      }

      .cls-5 {
        letter-spacing: -.03em;
      }

      .cls-2 {
        font-family: GlowingBubble, 'Glowing Bubble';
        font-size: 353.64px;
      }
    </style>
  </defs>
  <text class="cls-2" transform="translate(235.35 417.68)"><tspan x="0" y="0" xml:space="preserve">L  </tspan><tspan class="cls-5" x="382.98" y="0">C</tspan><tspan class="cls-3" x="552.72" y="0">A</tspan><tspan x="719.99" y="0">L </tspan><tspan x="-95.13" y="242.9">HE</tspan><tspan class="cls-4" x="248.6" y="242.9">R</tspan><tspan x="426.13" y="242.9">OES</tspan></text>
  <g>
    <path class="cls-1" d="M575.95,143.55c-27.18-31.32-70.26-31.37-87.3-31.39-17.04-.02-60.08-.07-87.33,31.15-26.95,30.88-28.98,81.48-4.81,125.92,30.56,61.07,61.13,122.13,91.69,183.2h0c30.73-60.98,61.47-121.96,92.2-182.94,24.3-44.37,22.41-94.98-4.46-125.94ZM487.66,243.01c-18.85,0-34.13-15.28-34.13-34.13s15.28-34.13,34.13-34.13,34.13,15.28,34.13,34.13-15.28,34.13-34.13,34.13Z"/>
    <circle class="cls-1" cx="487.66" cy="67.52" r="34.13"/>
    <path class="cls-1" d="M513.34,109.95c12.94-5.52,57.35-22.55,109.55-6.29,33.23,10.35,54.89,29.6,65.5,40.54,4.68,3.79,12.42,8.98,22.97,11.31,18.08,3.99,34.59-.26,45.98-8.97,14.33-10.96,28.66-21.91,42.98-32.87-1.97,5.56-4.43,12.47-6.51,18.34-9.9,27.84-14.87,41.79-16.11,43.45-15.98,21.46-64.7,18.67-97.71,4.24-5.76-2.52-23.12-14.82-57.84-39.41-26.8-18.98-32.52-23.65-43.87-27.92-25.16-9.46-49.38-6.19-64.95-2.41Z"/>
  </g>
</svg>